<svg width="28" height="28" viewBox="0 0 28 28" fill="none" xmlns="http://www.w3.org/2000/svg">
<path d="M28 14.43C28 14.052 27.85 13.706 27.548 13.419L17.55 3.452C17.219 3.121 16.903 3 16.54 3C15.8 3 15.228 3.543 15.228 4.297C15.228 4.659 15.348 5.005 15.59 5.247L18.967 8.684L24.953 14.143L25.255 13.389L20.4 13.087H1.327C0.543 13.087 0 13.645 0 14.43C0 15.215 0.543 15.772 1.327 15.772H20.4L25.255 15.471L24.953 14.731L18.967 20.175L15.59 23.613C15.349 23.839 15.228 24.201 15.228 24.563C15.228 25.317 15.801 25.859 16.54 25.859C16.902 25.859 17.218 25.724 17.52 25.437L27.547 15.441C27.848 15.154 27.999 14.807 27.999 14.431L28 14.43Z" fill="white"/>
</svg>
