<?xml version="1.0" encoding="UTF-8" standalone="no"?>
<svg
   width="28"
   height="28"
   viewBox="0 0 28 28"
   fill="none"
   version="1.1"
   id="svg4"
   sodipodi:docname="arrow-left.svg"
   inkscape:version="1.2.2 (732a01da63, 2022-12-09)"
   xmlns:inkscape="http://www.inkscape.org/namespaces/inkscape"
   xmlns:sodipodi="http://sodipodi.sourceforge.net/DTD/sodipodi-0.dtd"
   xmlns="http://www.w3.org/2000/svg"
   xmlns:svg="http://www.w3.org/2000/svg">
  <defs
     id="defs8" />
  <sodipodi:namedview
     id="namedview6"
     pagecolor="#ffffff"
     bordercolor="#000000"
     borderopacity="0.25"
     inkscape:showpageshadow="2"
     inkscape:pageopacity="0.0"
     inkscape:pagecheckerboard="0"
     inkscape:deskcolor="#d1d1d1"
     showgrid="false"
     inkscape:zoom="31.321429"
     inkscape:cx="13.920182"
     inkscape:cy="14.015964"
     inkscape:window-width="1920"
     inkscape:window-height="1057"
     inkscape:window-x="-8"
     inkscape:window-y="-8"
     inkscape:window-maximized="1"
     inkscape:current-layer="svg4" />
  <path
     d="m 0,14.429 c 0,0.378 0.15,0.724 0.452,1.011 l 9.998,9.967 c 0.331,0.331 0.647,0.452 1.01,0.452 0.74,0 1.312,-0.543 1.312,-1.297 0,-0.362 -0.12,-0.708 -0.362,-0.95 L 9.033,20.175 3.047,14.716 2.745,15.47 7.6,15.772 h 19.073 c 0.784,0 1.327,-0.558 1.327,-1.343 0,-0.785 -0.543,-1.342 -1.327,-1.342 H 7.6 L 2.745,13.388 3.047,14.128 9.033,8.684 12.41,5.246 C 12.651,5.02 12.772,4.658 12.772,4.296 12.772,3.542 12.199,3 11.46,3 11.098,3 10.782,3.135 10.48,3.422 L 0.453,13.418 c -0.301,0.287 -0.452,0.634 -0.452,1.01 z"
     fill="#ffffff"
     id="path2" />
</svg>
